<?xml version="1.0" encoding="utf-8"?>
<!-- Generator: Adobe Illustrator 16.0.0, SVG Export Plug-In . SVG Version: 6.00 Build 0)  -->
<!DOCTYPE svg PUBLIC "-//W3C//DTD SVG 1.1//EN" "http://www.w3.org/Graphics/SVG/1.1/DTD/svg11.dtd">
<svg version="1.1" id="Layer_1" xmlns="http://www.w3.org/2000/svg" xmlns:xlink="http://www.w3.org/1999/xlink" x="0px" y="0px"
	 width="612px" height="792px" viewBox="0 0 612 792" enable-background="new 0 0 612 792" xml:space="preserve">
<g>
	<text transform="matrix(1 0 0 1 9.0122 308.4082)" fill="#C6C6C6" font-family="'Whitney-Light'" font-size="102.1999">YOUNGSHIM</text>
	<text transform="matrix(1 0 0 1 605.1367 308.4082)" fill="#C6C6C6" font-family="'Whitney-Light'" font-size="43.8"> </text>
	
		<text transform="matrix(1 0 0 1 9.0122 447.1084)" fill="#FFFFFF" font-family="'Whitney-Light'" font-size="145.9999" letter-spacing="-1">G</text>
	
		<text transform="matrix(1 0 0 1 107.707 447.1084)" fill="#FFFFFF" font-family="'Whitney-Light'" font-size="145.9999" letter-spacing="-2">O</text>
	<text transform="matrix(1 0 0 1 212.9712 447.1084)" fill="#FFFFFF" font-family="'Whitney-Light'" font-size="145.9999">N</text>
	<text transform="matrix(1 0 0 1 315.8994 447.1084)" fill="#FFFFFF" font-family="'Whitney-Light'" font-size="145.9999">T</text>
	<text transform="matrix(1 0 0 1 398.3887 447.1084)" fill="#FFFFFF" font-family="'Whitney-Light'" font-size="145.9999">I</text>
	<text transform="matrix(1 0 0 1 437.3691 447.1084)" fill="#FFFFFF" font-family="'Whitney-Light'" font-size="145.9999">J</text>
	<text transform="matrix(1 0 0 1 489.1982 447.1084)" fill="#FFFFFF" font-family="'Whitney-Light'" font-size="145.9999">O</text>
	<g>
		<line fill="none" stroke="#FFFFFF" stroke-miterlimit="10" x1="18.186" y1="464.595" x2="18.186" y2="579.57"/>
		<line fill="none" stroke="#FFFFFF" stroke-miterlimit="10" x1="40.085" y1="464.595" x2="40.085" y2="579.57"/>
		<line fill="none" stroke="#FFFFFF" stroke-miterlimit="10" x1="61.985" y1="464.595" x2="61.985" y2="579.57"/>
		<line fill="none" stroke="#FFFFFF" stroke-miterlimit="10" x1="83.885" y1="464.595" x2="83.885" y2="579.57"/>
		<line fill="none" stroke="#FFFFFF" stroke-miterlimit="10" x1="105.785" y1="464.595" x2="105.785" y2="579.57"/>
		<line fill="none" stroke="#FFFFFF" stroke-miterlimit="10" x1="127.686" y1="464.595" x2="127.686" y2="579.57"/>
		<line fill="none" stroke="#FFFFFF" stroke-miterlimit="10" x1="149.586" y1="464.595" x2="149.586" y2="579.57"/>
		<line fill="none" stroke="#FFFFFF" stroke-miterlimit="10" x1="171.485" y1="464.595" x2="171.485" y2="579.57"/>
		<line fill="none" stroke="#FFFFFF" stroke-miterlimit="10" x1="193.385" y1="464.595" x2="193.385" y2="579.57"/>
		<line fill="none" stroke="#FFFFFF" stroke-miterlimit="10" x1="215.286" y1="464.595" x2="215.286" y2="579.57"/>
		<line fill="none" stroke="#FFFFFF" stroke-miterlimit="10" x1="237.185" y1="464.595" x2="237.185" y2="579.57"/>
		<line fill="none" stroke="#FFFFFF" stroke-miterlimit="10" x1="259.085" y1="464.595" x2="259.085" y2="579.57"/>
		<line fill="none" stroke="#FFFFFF" stroke-miterlimit="10" x1="280.986" y1="464.595" x2="280.986" y2="579.57"/>
		<line fill="none" stroke="#FFFFFF" stroke-miterlimit="10" x1="302.884" y1="464.595" x2="302.884" y2="579.57"/>
		<line fill="none" stroke="#FFFFFF" stroke-miterlimit="10" x1="324.785" y1="464.595" x2="324.785" y2="579.57"/>
		<line fill="none" stroke="#FFFFFF" stroke-miterlimit="10" x1="346.686" y1="464.595" x2="346.686" y2="579.57"/>
		<line fill="none" stroke="#FFFFFF" stroke-miterlimit="10" x1="368.585" y1="464.595" x2="368.585" y2="579.57"/>
		<line fill="none" stroke="#FFFFFF" stroke-miterlimit="10" x1="390.485" y1="464.595" x2="390.485" y2="579.57"/>
		<line fill="none" stroke="#FFFFFF" stroke-miterlimit="10" x1="412.386" y1="464.595" x2="412.386" y2="579.57"/>
		<line fill="none" stroke="#FFFFFF" stroke-miterlimit="10" x1="434.284" y1="464.595" x2="434.284" y2="579.57"/>
		<line fill="none" stroke="#FFFFFF" stroke-miterlimit="10" x1="456.185" y1="464.595" x2="456.185" y2="579.57"/>
		<line fill="none" stroke="#FFFFFF" stroke-miterlimit="10" x1="478.085" y1="464.595" x2="478.085" y2="579.57"/>
		<line fill="none" stroke="#FFFFFF" stroke-miterlimit="10" x1="499.986" y1="464.595" x2="499.986" y2="579.57"/>
		<line fill="none" stroke="#FFFFFF" stroke-miterlimit="10" x1="521.885" y1="464.595" x2="521.885" y2="579.57"/>
		<line fill="none" stroke="#FFFFFF" stroke-miterlimit="10" x1="543.785" y1="464.595" x2="543.785" y2="579.57"/>
		<line fill="none" stroke="#FFFFFF" stroke-miterlimit="10" x1="565.686" y1="464.595" x2="565.686" y2="579.57"/>
		<line fill="none" stroke="#FFFFFF" stroke-miterlimit="10" x1="587.585" y1="464.595" x2="587.585" y2="579.57"/>
	</g>
</g>
</svg>
