<?xml version="1.0" encoding="utf-8"?>
<!-- Generator: Adobe Illustrator 16.0.0, SVG Export Plug-In . SVG Version: 6.00 Build 0)  -->
<!DOCTYPE svg PUBLIC "-//W3C//DTD SVG 1.1//EN" "http://www.w3.org/Graphics/SVG/1.1/DTD/svg11.dtd">
<svg version="1.1" id="Layer_1" xmlns="http://www.w3.org/2000/svg" xmlns:xlink="http://www.w3.org/1999/xlink" x="0px" y="0px"
	 width="612px" height="792px" viewBox="0 0 612 792" enable-background="new 0 0 612 792" xml:space="preserve">
<g>
	<text transform="matrix(1 0 0 1 9.0122 308.4082)"><tspan x="0" y="0" fill="#929497" font-family="'Whitney-Light'" font-size="102.1999">YOUNGSHIM</tspan><tspan x="596.124" y="0" fill="#929497" font-family="'Whitney-Light'" font-size="43.8"> </tspan><tspan x="0" y="138.7" fill="#231F20" font-family="'Whitney-Light'" font-size="145.9999" letter-spacing="-2">G</tspan><tspan x="98.695" y="138.7" fill="#231F20" font-family="'Whitney-Light'" font-size="145.9999" letter-spacing="-3">O</tspan><tspan x="203.959" y="138.7" fill="#231F20" font-family="'Whitney-Light'" font-size="145.9999">N</tspan><tspan x="306.887" y="138.7" fill="#231F20" font-family="'Whitney-Light'" font-size="145.9999">T</tspan><tspan x="389.376" y="138.7" fill="#231F20" font-family="'Whitney-Light'" font-size="145.9999">I</tspan><tspan x="428.357" y="138.7" fill="#231F20" font-family="'Whitney-Light'" font-size="145.9999">J</tspan><tspan x="480.186" y="138.7" fill="#231F20" font-family="'Whitney-Light'" font-size="145.9999">O</tspan></text>
	<g>
		<line fill="none" stroke="#231F20" stroke-miterlimit="10" x1="18.186" y1="464.595" x2="18.186" y2="579.57"/>
		<line fill="none" stroke="#231F20" stroke-miterlimit="10" x1="40.085" y1="464.595" x2="40.085" y2="579.57"/>
		<line fill="none" stroke="#231F20" stroke-miterlimit="10" x1="61.985" y1="464.595" x2="61.985" y2="579.57"/>
		<line fill="none" stroke="#231F20" stroke-miterlimit="10" x1="83.885" y1="464.595" x2="83.885" y2="579.57"/>
		<line fill="none" stroke="#231F20" stroke-miterlimit="10" x1="105.785" y1="464.595" x2="105.785" y2="579.57"/>
		<line fill="none" stroke="#231F20" stroke-miterlimit="10" x1="127.686" y1="464.595" x2="127.686" y2="579.57"/>
		<line fill="none" stroke="#231F20" stroke-miterlimit="10" x1="149.586" y1="464.595" x2="149.586" y2="579.57"/>
		<line fill="none" stroke="#231F20" stroke-miterlimit="10" x1="171.485" y1="464.595" x2="171.485" y2="579.57"/>
		<line fill="none" stroke="#231F20" stroke-miterlimit="10" x1="193.385" y1="464.595" x2="193.385" y2="579.57"/>
		<line fill="none" stroke="#231F20" stroke-miterlimit="10" x1="215.286" y1="464.595" x2="215.286" y2="579.57"/>
		<line fill="none" stroke="#231F20" stroke-miterlimit="10" x1="237.185" y1="464.595" x2="237.185" y2="579.57"/>
		<line fill="none" stroke="#231F20" stroke-miterlimit="10" x1="259.085" y1="464.595" x2="259.085" y2="579.57"/>
		<line fill="none" stroke="#231F20" stroke-miterlimit="10" x1="280.986" y1="464.595" x2="280.986" y2="579.57"/>
		<line fill="none" stroke="#231F20" stroke-miterlimit="10" x1="302.884" y1="464.595" x2="302.884" y2="579.57"/>
		<line fill="none" stroke="#231F20" stroke-miterlimit="10" x1="324.785" y1="464.595" x2="324.785" y2="579.57"/>
		<line fill="none" stroke="#231F20" stroke-miterlimit="10" x1="346.686" y1="464.595" x2="346.686" y2="579.57"/>
		<line fill="none" stroke="#231F20" stroke-miterlimit="10" x1="368.585" y1="464.595" x2="368.585" y2="579.57"/>
		<line fill="none" stroke="#231F20" stroke-miterlimit="10" x1="390.485" y1="464.595" x2="390.485" y2="579.57"/>
		<line fill="none" stroke="#231F20" stroke-miterlimit="10" x1="412.386" y1="464.595" x2="412.386" y2="579.57"/>
		<line fill="none" stroke="#231F20" stroke-miterlimit="10" x1="434.284" y1="464.595" x2="434.284" y2="579.57"/>
		<line fill="none" stroke="#231F20" stroke-miterlimit="10" x1="456.185" y1="464.595" x2="456.185" y2="579.57"/>
		<line fill="none" stroke="#231F20" stroke-miterlimit="10" x1="478.085" y1="464.595" x2="478.085" y2="579.57"/>
		<line fill="none" stroke="#231F20" stroke-miterlimit="10" x1="499.986" y1="464.595" x2="499.986" y2="579.57"/>
		<line fill="none" stroke="#231F20" stroke-miterlimit="10" x1="521.885" y1="464.595" x2="521.885" y2="579.57"/>
		<line fill="none" stroke="#231F20" stroke-miterlimit="10" x1="543.785" y1="464.595" x2="543.785" y2="579.57"/>
		<line fill="none" stroke="#231F20" stroke-miterlimit="10" x1="565.686" y1="464.595" x2="565.686" y2="579.57"/>
		<line fill="none" stroke="#231F20" stroke-miterlimit="10" x1="587.585" y1="464.595" x2="587.585" y2="579.57"/>
	</g>
</g>
</svg>
